<svg width="75" height="75" viewBox="0 0 75 75" fill="none" xmlns="http://www.w3.org/2000/svg">
<circle cx="37.5" cy="37.5" r="37.5" fill="#E30613"/>
<path d="M51.125 28H24.875C23.8412 28 23 28.8412 23 29.875V46.125C23 47.1587 23.8412 48 24.875 48H51.125C52.1588 48 53 47.1587 53 46.125V29.875C53 28.8413 52.1588 28 51.125 28ZM51.75 46.125C51.75 46.47 51.47 46.7501 51.125 46.7501H24.875C24.53 46.7501 24.25 46.47 24.25 46.125V29.875C24.25 29.53 24.53 29.25 24.875 29.25H51.125C51.47 29.25 51.75 29.53 51.75 29.875V46.125Z" fill="white"/>
<path d="M52.5663 28.6788C52.3638 28.3987 51.9713 28.3363 51.6938 28.5388L39.1026 37.6413C38.4426 38.1201 37.5564 38.1213 36.8951 37.6401L24.3088 28.5388C24.0288 28.3363 23.6376 28.3988 23.4363 28.6788C23.2351 28.9588 23.2976 29.35 23.5763 29.5525L36.1613 38.6526C36.7113 39.0526 37.355 39.2526 38 39.2526C38.6438 39.2526 39.2875 39.0526 39.8363 38.6526L52.4263 29.5513C52.7051 29.35 52.7688 28.9588 52.5663 28.6788Z" fill="white"/>
<path d="M36.8336 37.6325C36.6299 37.3537 36.2411 37.29 35.9599 37.4937L23.5936 46.47C23.3149 46.6737 23.2524 47.0637 23.4549 47.3438C23.5774 47.5125 23.7673 47.6013 23.9611 47.6013C24.0874 47.6013 24.2161 47.5625 24.3286 47.4825L36.6949 38.5062C36.9736 38.3025 37.0361 37.9125 36.8336 37.6325Z" fill="white"/>
<path d="M52.4061 46.4701L40.041 37.4938C39.7585 37.2901 39.3698 37.3526 39.1673 37.6326C38.9648 37.9126 39.0273 38.3026 39.306 38.5063L51.671 47.4826C51.781 47.5626 51.9098 47.6014 52.0373 47.6014C52.231 47.6014 52.4223 47.5126 52.5447 47.3438C52.7473 47.0638 52.6848 46.6738 52.4061 46.4701Z" fill="white"/>
</svg>
