<svg width="75" height="75" viewBox="0 0 75 75" fill="none" xmlns="http://www.w3.org/2000/svg">
<circle cx="37.5" cy="37.5" r="37.5" fill="#E30613"/>
<path d="M38 23C32.1412 23 27.375 27.7662 27.375 33.625C27.375 39.2912 37.0887 52.205 37.5012 52.7525C37.62 52.9088 37.8037 53 38 53C38.1962 53 38.38 52.9088 38.4987 52.7525C38.9112 52.205 48.625 39.2912 48.625 33.625C48.625 27.7662 43.8587 23 38 23ZM38 51.3237C35.9937 48.5788 28.625 38.185 28.625 33.625C28.625 28.455 32.83 24.25 38 24.25C43.17 24.25 47.375 28.455 47.375 33.625C47.375 38.1825 40.0062 48.5775 38 51.3237Z" fill="white"/>
<path d="M38 28C34.8987 28 32.375 30.5238 32.375 33.625C32.375 36.7263 34.8987 39.25 38 39.25C41.1012 39.25 43.625 36.7263 43.625 33.625C43.625 30.5238 41.1012 28 38 28ZM38 38C35.5875 38 33.625 36.0375 33.625 33.625C33.625 31.2125 35.5875 29.25 38 29.25C40.4125 29.25 42.375 31.2125 42.375 33.625C42.375 36.0375 40.4125 38 38 38Z" fill="white"/>
</svg>
