<svg width="75" height="75" viewBox="0 0 75 75" fill="none" xmlns="http://www.w3.org/2000/svg">
<circle cx="37.5" cy="37.5" r="37.5" fill="#E30613"/>
<g clip-path="url(#clip0_14_1242)">
<path d="M52.9804 47.6911C52.885 46.9703 52.4689 46.3487 51.8387 45.9859L44.4376 41.7246C43.5312 41.2027 42.3812 41.3547 41.6413 42.0945L40.1835 43.5523C39.7956 43.9403 39.1819 43.9746 38.7563 43.632C37.607 42.7073 36.4755 41.6896 35.3931 40.6071C34.3107 39.5248 33.293 38.3933 32.3682 37.244C32.0256 36.8183 32.0599 36.2046 32.448 35.8166L33.9057 34.3588C34.6455 33.6191 34.7976 32.4693 34.2756 31.5626L30.0143 24.1615C29.6515 23.5313 29.03 23.1152 28.3091 23.0198C27.5881 22.9243 26.8797 23.1647 26.3655 23.6789L24.169 25.8755C22.6359 27.4087 22.6113 30.2131 24.0996 33.7723C25.5308 37.1945 28.2016 40.9619 31.6199 44.3803C35.0383 47.7987 38.8057 50.4695 42.228 51.9007C43.98 52.6333 45.5489 52.9994 46.8735 52.9993C48.2399 52.9993 49.3463 52.6097 50.1248 51.8313L52.3213 49.6346C52.8355 49.1204 53.0757 48.412 52.9804 47.6911ZM43.9527 42.5669L51.3538 46.8282C51.7198 47.0389 51.9615 47.3999 52.0169 47.8186C52.0634 48.17 51.9721 48.516 51.7651 48.7948L41.9291 43.1812L42.3286 42.7817C42.7582 42.3521 43.4263 42.2638 43.9527 42.5669ZM28.1816 23.9834C28.6003 24.0388 28.9613 24.2805 29.172 24.6465L33.4333 32.0476C33.7365 32.5742 33.6481 33.2421 33.2185 33.6716L32.8516 34.0386L27.2071 24.2351C27.4379 24.0642 27.7138 23.9715 28.0015 23.9715C28.0612 23.9715 28.1214 23.9754 28.1816 23.9834ZM49.4374 51.144C48.2194 52.362 45.7284 52.3109 42.603 51.0039C39.2946 49.6204 35.6383 47.024 32.3072 43.6931C28.9762 40.362 26.3798 36.7056 24.9963 33.3973C23.6892 30.2719 23.6382 27.7808 24.8562 26.5627L26.4869 24.932L32.1398 34.7503L31.7607 35.1294C31.0211 35.8691 30.9567 37.0401 31.611 37.8533C32.5575 39.0297 33.5988 40.1875 34.7058 41.2944C35.8128 42.4014 36.9706 43.4427 38.1469 44.3893C38.96 45.0436 40.131 44.9792 40.8708 44.2395L41.2167 43.8936L51.0663 49.515L49.4374 51.144Z" fill="white"/>
</g>
<defs>
<clipPath id="clip0_14_1242">
<rect width="30" height="30" fill="white" transform="translate(23 23)"/>
</clipPath>
</defs>
</svg>
