<svg width="14" height="14" viewBox="0 0 14 14" fill="none" xmlns="http://www.w3.org/2000/svg">
<path d="M13.125 2.33325H0.875C0.392574 2.33325 0 2.72583 0 3.20825V10.7916C0 11.274 0.392574 11.6666 0.875 11.6666H13.125C13.6074 11.6666 14 11.274 14 10.7916V3.20825C14 2.72585 13.6074 2.33325 13.125 2.33325ZM13.4167 10.7916C13.4167 10.9526 13.286 11.0833 13.125 11.0833H0.875C0.714 11.0833 0.583324 10.9526 0.583324 10.7916V3.20825C0.583324 3.04725 0.714 2.91658 0.875 2.91658H13.125C13.286 2.91658 13.4167 3.04725 13.4167 3.20825V10.7916Z" fill="#E30613"/>
<path d="M13.7976 2.65009C13.7031 2.51941 13.5199 2.49027 13.3904 2.58477L7.51451 6.8326C7.20651 7.05602 6.79293 7.0566 6.48433 6.83202L0.610755 2.58477C0.480079 2.49027 0.297505 2.51944 0.203579 2.65009C0.109653 2.78077 0.138829 2.96334 0.268903 3.05784L6.14191 7.30452C6.39858 7.4912 6.69898 7.58453 6.99998 7.58453C7.30041 7.58453 7.60081 7.4912 7.85691 7.30452L13.7322 3.05727C13.8623 2.96334 13.8921 2.78077 13.7976 2.65009Z" fill="#E30613"/>
<path d="M6.45575 6.8285C6.36068 6.69843 6.17925 6.66868 6.048 6.76375L0.277077 10.9527C0.147003 11.0478 0.117827 11.2298 0.212327 11.3604C0.269503 11.4392 0.358152 11.4806 0.448577 11.4806C0.507503 11.4806 0.567577 11.4625 0.620077 11.4252L6.391 7.23626C6.52108 7.14118 6.55025 6.95918 6.45575 6.8285Z" fill="#E30613"/>
<path d="M13.7229 10.9526L7.95257 6.76368C7.82074 6.66861 7.63932 6.69776 7.54482 6.82843C7.45032 6.95911 7.47949 7.14111 7.60957 7.23618L13.3799 11.4251C13.4312 11.4624 13.4913 11.4805 13.5508 11.4805C13.6412 11.4805 13.7305 11.4391 13.7876 11.3603C13.8822 11.2297 13.853 11.0477 13.7229 10.9526Z" fill="#E30613"/>
</svg>
