<svg width="35" height="35" viewBox="0 0 35 35" fill="none" xmlns="http://www.w3.org/2000/svg">
<rect width="35" height="35" fill="#1A2A3D"/>
<g clip-path="url(#clip0_13_721)">
<path d="M17.5025 13.6487C15.3756 13.6487 13.6537 15.3724 13.6537 17.4974C13.6537 19.6243 15.3775 21.3462 17.5025 21.3462C19.6294 21.3462 21.3512 19.6224 21.3512 17.4974C21.3512 15.3706 19.6275 13.6487 17.5025 13.6487ZM17.5025 19.9956C16.1219 19.9956 15.0044 18.8774 15.0044 17.4974C15.0044 16.1174 16.1225 14.9993 17.5025 14.9993C18.8825 14.9993 20.0006 16.1174 20.0006 17.4974C20.0012 18.8774 18.8831 19.9956 17.5025 19.9956Z" fill="#E30613"/>
<path d="M20.5925 10.0474C19.2125 9.98299 15.7944 9.98611 14.4131 10.0474C13.1994 10.1042 12.1287 10.3974 11.2656 11.2605C9.82311 12.703 10.0075 14.6467 10.0075 17.4974C10.0075 20.4149 9.84499 22.3136 11.2656 23.7342C12.7137 25.1817 14.6856 24.9924 17.5025 24.9924C20.3925 24.9924 21.39 24.9942 22.4119 24.5986C23.8012 24.0592 24.85 22.8174 24.9525 20.5867C25.0175 19.2061 25.0137 15.7886 24.9525 14.4074C24.8287 11.7742 23.4156 10.1774 20.5925 10.0474ZM22.7769 22.7799C21.8312 23.7255 20.5194 23.6411 17.4844 23.6411C14.3594 23.6411 13.1062 23.6874 12.1919 22.7705C11.1387 21.7224 11.3294 20.0392 11.3294 17.4874C11.3294 14.0342 10.975 11.5474 14.4406 11.3699C15.2369 11.3417 15.4712 11.3324 17.4756 11.3324L17.5037 11.3511C20.8344 11.3511 23.4475 11.0024 23.6044 14.4674C23.64 15.258 23.6481 15.4955 23.6481 17.4967C23.6475 20.5855 23.7062 21.8461 22.7769 22.7799Z" fill="#E30613"/>
<path d="M21.5037 14.3964C22.0005 14.3964 22.4031 13.9937 22.4031 13.497C22.4031 13.0003 22.0005 12.5977 21.5037 12.5977C21.007 12.5977 20.6044 13.0003 20.6044 13.497C20.6044 13.9937 21.007 14.3964 21.5037 14.3964Z" fill="#E30613"/>
</g>
<defs>
<clipPath id="clip0_13_721">
<rect width="15" height="15" fill="white" transform="translate(10 10)"/>
</clipPath>
</defs>
</svg>
