<svg width="58" height="58" viewBox="0 0 58 58" fill="none" xmlns="http://www.w3.org/2000/svg">
<path d="M29.7069 57.293C45.3327 56.9026 57.6835 43.9188 57.2931 28.293C56.9027 12.6671 43.919 0.316305 28.2931 0.706701C12.6673 1.0971 0.316478 14.0808 0.706874 29.7067C1.09727 45.3326 14.081 57.6833 29.7069 57.293Z" fill="#E30613"/>
<path d="M55.5205 28.9995C55.5205 43.6722 43.6719 55.5208 28.9992 55.5208C14.3266 55.5208 2.47797 43.6722 2.47797 28.9995C2.47797 14.3269 14.388 2.47827 28.9992 2.47827C43.6719 2.47827 55.5205 14.3269 55.5205 28.9995Z" stroke="white" stroke-width="1.776" stroke-miterlimit="10"/>
<path d="M46.6187 28.9993C46.6187 38.6992 38.7605 46.5574 29.0606 46.5574C19.3607 46.5574 11.5026 38.6992 11.5026 28.9993C11.5026 19.2994 19.3607 11.4413 29.0606 11.4413C38.6991 11.3799 46.6187 19.2994 46.6187 28.9993Z" fill="white"/>
<path d="M9.41528 25.623L5.11786 25.6844L5.30203 24.9477H7.75771C7.88049 24.9477 8.00327 24.9477 8.12606 24.9477C8.31023 24.9477 8.49441 24.9477 8.67858 25.0091C8.49441 24.9477 8.24884 24.8249 7.94188 24.7021C7.88049 24.7021 7.88049 24.6407 7.8191 24.6407L5.67038 23.4129L5.85456 22.7376H8.31023C8.43302 22.7376 8.5558 22.7376 8.67858 22.7376C8.86276 22.7376 9.04693 22.7376 9.23111 22.799C9.10832 22.7376 8.98554 22.6762 8.80137 22.6148C8.67858 22.5534 8.49441 22.492 8.37162 22.3692L6.16152 21.2028L6.34569 20.4661L10.152 22.492L9.96781 23.4129H7.8191C7.63492 23.4129 7.45075 23.4129 7.26657 23.4129C7.14379 23.4129 6.95961 23.4129 6.83683 23.3515C7.021 23.4129 7.20518 23.4743 7.32796 23.5357C7.45075 23.597 7.57353 23.6584 7.69631 23.7198L9.59946 24.7021L9.41528 25.623Z" fill="white"/>
<path d="M10.7045 21.2642L6.95959 19.4225L8.12604 16.9668L8.73996 17.2738L7.88047 18.9927L8.73996 19.4225L9.35387 18.1332L9.96779 18.4402L9.35387 19.7294L10.3361 20.2206L11.1956 18.4402L11.8095 18.7472L10.7045 21.2642Z" fill="white"/>
<path d="M12.1779 18.3787L8.80139 15.9844L9.23113 15.3091L12.0552 17.2736L13.0374 15.8616L13.59 16.2914L12.1779 18.3787Z" fill="white"/>
<path d="M14.5722 13.5287L15.2475 13.1603C15.4317 13.4673 15.4931 13.8356 15.4317 14.1426C15.3703 14.4495 15.2475 14.7565 14.9405 15.0635C14.5722 15.4318 14.1425 15.616 13.7127 15.5546C13.283 15.4932 12.7918 15.2476 12.3007 14.7565C11.8096 14.2654 11.5026 13.7742 11.4412 13.3445C11.3798 12.8534 11.5026 12.4236 11.9323 12.0553C12.1779 11.8097 12.4849 11.6255 12.7918 11.5641C13.0988 11.5027 13.4058 11.5641 13.7127 11.8097L13.3444 12.4236C13.1602 12.3008 12.976 12.3008 12.8532 12.3008C12.6691 12.3008 12.5463 12.3622 12.4235 12.5464C12.2393 12.7306 12.1779 12.9761 12.2393 13.2831C12.3007 13.5287 12.5463 13.897 12.9146 14.204C13.283 14.5723 13.5899 14.7565 13.8355 14.8179C14.0811 14.8793 14.3266 14.8179 14.5108 14.5723C14.6336 14.4495 14.695 14.2654 14.7564 14.0812C14.695 13.8356 14.695 13.7128 14.5722 13.5287Z" fill="white"/>
<path d="M14.9405 12.0551C14.5722 11.5026 14.388 11.0115 14.388 10.5203C14.388 10.0292 14.6336 9.66084 15.0633 9.29249C15.4931 8.98553 15.9842 8.86274 16.4139 8.98553C16.9051 9.10831 17.3348 9.47666 17.7032 10.0292C18.0715 10.5817 18.2557 11.0728 18.2557 11.564C18.2557 12.0551 18.0101 12.4235 17.5804 12.7918C17.1506 13.0988 16.6595 13.2216 16.2298 13.0374C15.7386 12.9146 15.3089 12.6076 14.9405 12.0551ZM15.5544 11.564C15.8 11.9323 16.107 12.1779 16.3525 12.3007C16.5981 12.4235 16.9051 12.3621 17.1506 12.1779C17.3962 11.9937 17.519 11.7482 17.519 11.5026C17.519 11.1956 17.3348 10.8887 17.0892 10.5203C16.7823 10.152 16.5367 9.9064 16.2911 9.78362C16.0456 9.66084 15.7386 9.72223 15.4931 9.9064C15.2475 10.0906 15.1247 10.3361 15.1247 10.5817C15.1247 10.8273 15.3089 11.1956 15.5544 11.564Z" fill="white"/>
<path d="M19.3607 11.4414L17.7031 7.63514L18.7468 7.20539L20.0974 8.80158C20.2202 8.92436 20.343 9.10854 20.4658 9.23132C20.5885 9.35411 20.6499 9.53828 20.7727 9.66107C20.7727 9.47689 20.7113 9.35411 20.7113 9.16993C20.7113 8.98576 20.6499 8.80158 20.6499 8.6174L20.4044 6.53008L21.3866 6.10034L23.0442 9.90663L22.4303 10.1522L21.0183 6.95983C21.0183 7.144 21.0797 7.26679 21.0797 7.45096C21.0797 7.63514 21.1411 7.75792 21.1411 7.9421L21.448 10.5819L20.8955 10.8275L19.1765 8.74019C18.9924 8.49462 18.8696 8.37184 18.8082 8.24905C18.7468 8.12627 18.6854 8.06488 18.624 8.00349L20.036 11.1959L19.3607 11.4414Z" fill="white"/>
<path d="M23.7195 9.7223L22.86 5.67045L25.4999 5.11792L25.6227 5.79323L23.7195 6.16158L23.9037 7.14385L25.3157 6.83689L25.4385 7.5122L24.0879 7.75777L24.3335 8.86282L26.298 8.43308L26.4208 9.10839L23.7195 9.7223Z" fill="white"/>
<path d="M29.3062 9.04707L29.429 5.54774L28.324 5.48635V4.81104L31.2708 4.93382V5.60913H30.2271L30.1043 9.10846L29.3062 9.04707Z" fill="white"/>
<path d="M31.7619 7.08278C31.8847 6.40747 32.1302 5.91634 32.56 5.60938C32.9283 5.30242 33.3581 5.17964 33.9106 5.30242C34.4631 5.42521 34.8315 5.67077 35.0156 6.10052C35.2612 6.53026 35.2612 7.08278 35.1384 7.75809C35.0156 8.4334 34.7701 8.92454 34.3403 9.2315C33.972 9.53846 33.4808 9.66124 32.9897 9.53846C32.4372 9.41567 32.0688 9.17011 31.8847 8.74036C31.7005 8.24923 31.6391 7.75809 31.7619 7.08278ZM32.56 7.20557C32.4372 7.6967 32.4986 8.00366 32.56 8.31062C32.6828 8.55619 32.8669 8.74036 33.1739 8.80175C33.4808 8.86315 33.7264 8.80175 33.9106 8.55619C34.0948 8.37201 34.2789 8.00366 34.3403 7.57392C34.4631 7.08278 34.4631 6.71443 34.3403 6.46887C34.2175 6.2233 34.0334 6.03912 33.7264 5.97773C33.4195 5.91634 33.1739 5.97773 32.9897 6.2233C32.8055 6.40747 32.6214 6.77583 32.56 7.20557Z" fill="white"/>
<path d="M39.2517 10.4589L39.8042 10.9501C39.5587 11.1956 39.2517 11.3798 38.9447 11.4412C38.6378 11.5026 38.2694 11.4412 37.9625 11.257C37.4713 11.0115 37.2258 10.6431 37.103 10.2134C37.0416 9.78362 37.1644 9.23109 37.4713 8.61718C37.7783 8.00326 38.1467 7.57351 38.5764 7.38934C39.0061 7.20516 39.4359 7.20516 39.927 7.45073C40.234 7.63491 40.4795 7.81908 40.6023 8.12604C40.7251 8.37161 40.7251 8.73996 40.6637 9.04692L39.927 8.86274C39.9884 8.67857 39.9884 8.49439 39.927 8.31022C39.8656 8.18743 39.7428 8.06465 39.5587 7.94187C39.3131 7.81908 39.0675 7.81908 38.822 8.00326C38.5764 8.18743 38.3308 8.49439 38.1467 8.92413C37.9011 9.35388 37.8397 9.72223 37.8397 9.9678C37.8397 10.2134 38.0239 10.4589 38.2694 10.5817C38.4536 10.6431 38.6378 10.7045 38.7606 10.6431C39.0061 10.7045 39.1289 10.5817 39.2517 10.4589Z" fill="white"/>
<path d="M39.3745 11.8712L42.8738 9.29272L43.6719 9.90664L42.1985 14.0199L41.5846 13.5288L41.8916 12.6693L40.7251 11.7484L39.9884 12.3623L39.3745 11.8712ZM41.2777 11.3187L42.1371 11.9326L42.8125 10.1522L41.2777 11.3187Z" fill="white"/>
<path d="M42.3826 14.2041L45.4522 11.3801L46.0047 11.994L45.268 14.2655C45.2066 14.4497 45.1453 14.6339 45.0839 14.7567C45.0225 14.9409 44.9611 15.0636 44.8383 15.2478C44.8997 15.125 45.0225 15.0636 45.0839 14.9409C45.2066 14.8181 45.268 14.7567 45.3908 14.6339L47.0484 13.0991L47.5395 13.6516L44.4699 16.4756L43.9788 15.9231L44.6541 13.5288C44.7155 13.4061 44.7769 13.2219 44.8383 13.0377C44.8997 12.8535 44.9611 12.6694 45.0839 12.4852C45.0225 12.5466 44.9611 12.6694 44.8383 12.7921C44.7155 12.9149 44.6541 12.9763 44.5313 13.0991L42.8738 14.6953L42.3826 14.2041Z" fill="white"/>
<path d="M44.777 16.7209L48.9516 15.5544L49.5041 16.3525L46.6801 19.6677L46.189 18.9924L46.8029 18.2557L46.0048 17.0278L45.0839 17.2734L44.777 16.7209ZM46.7415 16.9051L47.294 17.8259L48.5833 16.3525L46.7415 16.9051Z" fill="white"/>
<path d="M46.7415 19.9748L50.6092 18.3787L51.1003 19.5451C51.3459 20.159 51.3459 20.6502 51.1617 21.0799C50.9775 21.5096 50.5478 21.878 49.9339 22.1236C49.2586 22.3691 48.7674 22.4305 48.2763 22.2463C47.8466 22.0622 47.4782 21.6938 47.2326 21.0799L46.7415 19.9748ZM47.6624 20.466L47.8466 20.8343C48.0307 21.2027 48.2149 21.4483 48.5219 21.571C48.7674 21.6938 49.1358 21.6324 49.6269 21.4483C50.0567 21.2641 50.3636 21.0185 50.4864 20.7729C50.6092 20.5274 50.6092 20.159 50.425 19.7907L50.2408 19.4223L47.6624 20.466Z" fill="white"/>
<path d="M47.9694 22.9832L52.3282 23.3515L52.5124 24.3338L48.7061 26.4211L48.5219 25.6844L49.3814 25.2547L49.0744 23.8426L48.1535 23.7812L47.9694 22.9832ZM49.7497 23.7812L49.9953 24.8249L51.7143 23.904L49.7497 23.7812Z" fill="white"/>
<path d="M48.8288 32.6217L53.1262 32.5603L52.942 33.297L50.4864 33.297C50.3636 33.297 50.2408 33.297 50.118 33.297C49.9338 33.297 49.7497 33.297 49.5655 33.2356C49.7497 33.297 49.9952 33.4197 50.3022 33.5425C50.3636 33.5425 50.3636 33.6039 50.425 33.6039L52.5737 34.8318L52.3895 35.5071L49.9338 35.5071C49.8111 35.5071 49.6883 35.5071 49.5655 35.5071C49.3813 35.5071 49.1971 35.5071 49.013 35.4457C49.1358 35.5071 49.2585 35.5685 49.4427 35.6299C49.5655 35.6912 49.7497 35.7526 49.8725 35.8754L52.0826 37.0419L51.8984 37.7786L48.0921 35.7526L48.2763 34.8318L50.425 34.8318C50.6092 34.8318 50.7933 34.8318 50.9775 34.8318C51.1003 34.8318 51.2845 34.8318 51.4073 34.8931C51.2231 34.8318 51.0389 34.7704 50.9161 34.709C50.7933 34.6476 50.6705 34.5862 50.5478 34.5248L48.6446 33.5425L48.8288 32.6217Z" fill="white"/>
<path d="M47.5396 36.9804L51.2845 38.8222L50.118 41.2778L49.5041 40.9709L50.3636 39.2519L49.5041 38.8222L48.8902 40.1114L48.2763 39.8044L48.8902 38.5152L47.9079 38.0241L47.0485 39.8044L46.4345 39.4975L47.5396 36.9804Z" fill="white"/>
<path d="M46.0662 39.8657L49.4427 42.26L49.013 42.9353L46.189 40.9708L45.2067 42.3828L44.6542 41.953L46.0662 39.8657Z" fill="white"/>
<path d="M43.6719 44.716L42.9966 45.0843C42.8125 44.7773 42.7511 44.409 42.8125 44.102C42.8739 43.7951 42.9966 43.4881 43.3036 43.1812C43.6719 42.8128 44.1017 42.6286 44.5314 42.69C44.9612 42.7514 45.4523 42.997 45.9434 43.4881C46.4346 43.9793 46.7415 44.4704 46.8029 44.9001C46.8643 45.3913 46.7415 45.821 46.3118 46.1894C46.0662 46.4349 45.7593 46.6191 45.4523 46.6805C45.1453 46.7419 44.8384 46.6805 44.5314 46.4349L44.8998 45.821C45.084 45.9438 45.2681 45.9438 45.3909 45.9438C45.5751 45.9438 45.6979 45.8824 45.8207 45.6982C46.0048 45.5141 46.0662 45.2685 46.0048 44.9615C45.9434 44.716 45.6979 44.3476 45.3295 44.0406C44.9612 43.6723 44.6542 43.4881 44.4086 43.4267C44.1631 43.3653 43.9175 43.4267 43.7333 43.6723C43.6106 43.7951 43.5492 43.9793 43.4878 44.1634C43.5492 44.409 43.5492 44.5318 43.6719 44.716Z" fill="white"/>
<path d="M43.3036 46.1893C43.6719 46.7418 43.8561 47.2329 43.8561 47.7241C43.8561 48.2152 43.6105 48.5835 43.1808 48.9519C42.751 49.2589 42.2599 49.3816 41.8302 49.2589C41.339 49.1361 40.9093 48.7677 40.5409 48.2152C40.1726 47.6627 39.9884 47.1715 39.9884 46.6804C39.9884 46.1893 40.234 45.8209 40.6637 45.4526C41.0934 45.1456 41.5846 45.0228 42.0143 45.207C42.5055 45.3298 42.9352 45.6367 43.3036 46.1893ZM42.6896 46.6804C42.4441 46.3121 42.1371 46.0665 41.8915 45.9437C41.646 45.8209 41.339 45.8823 41.0934 46.0665C40.8479 46.2507 40.7251 46.4962 40.7251 46.7418C40.7251 47.0488 40.9093 47.3557 41.1548 47.7241C41.4618 48.0924 41.7074 48.338 41.9529 48.4608C42.1985 48.5835 42.5055 48.5222 42.751 48.338C42.9966 48.1538 43.1194 47.9082 43.1194 47.6627C43.1194 47.4171 42.9352 47.0488 42.6896 46.6804Z" fill="white"/>
<path d="M38.8834 46.8032L40.541 50.6095L39.4973 51.0392L38.1467 49.443C38.0239 49.3203 37.9011 49.1361 37.7783 49.0133C37.6555 48.8905 37.5941 48.7063 37.4714 48.5836C37.4714 48.7677 37.5328 48.8905 37.5328 49.0747C37.5328 49.2589 37.5941 49.443 37.5941 49.6272L37.8397 51.7145L36.8574 52.1443L35.1999 48.338L35.8138 48.0924L37.2258 51.2848C37.2258 51.1006 37.1644 50.9778 37.1644 50.7937C37.1644 50.6095 37.103 50.4867 37.103 50.3025L36.7961 47.6627L37.3486 47.4171L39.0676 49.5044C39.2517 49.75 39.3745 49.8728 39.4359 49.9956C39.4973 50.1184 39.5587 50.1797 39.6201 50.2411L38.2081 47.0488L38.8834 46.8032Z" fill="white"/>
<path d="M34.5245 48.5221L35.384 52.5739L32.7442 53.1265L32.6214 52.4512L34.5245 52.0828L34.3404 51.1005L32.9284 51.4075L32.8056 50.7322L34.1562 50.4866L33.9106 49.3816L31.9461 49.8113L31.8233 49.136L34.5245 48.5221Z" fill="white"/>
<path d="M28.9379 49.1976L28.8151 52.6969L29.9202 52.7583L29.9202 53.4336L26.9734 53.3108L26.9734 52.6355L28.017 52.6355L28.1398 49.1362L28.9379 49.1976Z" fill="white"/>
<path d="M26.4822 51.1621C26.3594 51.8374 26.1138 52.3285 25.6841 52.6355C25.3158 52.9425 24.886 53.0652 24.3335 52.9425C23.781 52.8197 23.4126 52.5741 23.2284 52.1444C22.9829 51.7146 22.9829 51.1621 23.1057 50.4868C23.2284 49.8115 23.474 49.3203 23.9037 49.0134C24.2721 48.7064 24.7632 48.5836 25.2544 48.7064C25.8069 48.8292 26.1752 49.0748 26.3594 49.5045C26.5436 49.9956 26.605 50.4868 26.4822 51.1621ZM25.6841 51.0393C25.8069 50.5482 25.7455 50.2412 25.6841 49.9343C25.5613 49.6887 25.3771 49.5045 25.0702 49.4431C24.7632 49.3817 24.5177 49.4431 24.3335 49.6887C24.1493 49.8729 23.9651 50.2412 23.9037 50.671C23.781 51.1621 23.781 51.5304 23.9037 51.776C24.0265 52.0216 24.2107 52.2057 24.5177 52.2671C24.8246 52.3285 25.0702 52.2671 25.2544 52.0216C25.4385 51.8374 25.6227 51.469 25.6841 51.0393Z" fill="white"/>
<path d="M18.9924 47.7855L18.4398 47.2943C18.6854 47.0488 18.9924 46.8646 19.2993 46.8032C19.6063 46.7418 19.9746 46.8032 20.2816 46.9874C20.7727 47.2329 21.0183 47.6013 21.1411 48.031C21.2025 48.4608 21.0797 49.0133 20.7727 49.6272C20.4658 50.2411 20.0974 50.6709 19.6677 50.855C19.2379 51.0392 18.8082 51.0392 18.3171 50.7937C18.0101 50.6095 17.7645 50.4253 17.6417 50.1183C17.519 49.8728 17.519 49.5044 17.5804 49.1975L18.3171 49.3816C18.2557 49.5658 18.2557 49.75 18.3171 49.9342C18.3785 50.057 18.5012 50.1797 18.6854 50.3025C18.931 50.4253 19.1765 50.4253 19.4221 50.2411C19.6677 50.057 19.9132 49.75 20.0974 49.3203C20.343 48.8905 20.4044 48.5222 20.4044 48.2766C20.4044 48.031 20.2202 47.7855 19.9746 47.6627C19.7905 47.6013 19.6063 47.5399 19.4835 47.6013C19.2379 47.5399 19.1152 47.6627 18.9924 47.7855Z" fill="white"/>
<path d="M18.8696 46.3734L15.3702 48.9519L14.5721 48.338L16.0455 44.2247L16.6595 44.7159L16.3525 45.5754L17.519 46.4962L18.2557 45.8823L18.8696 46.3734ZM16.9664 46.926L16.1069 46.3121L15.4316 48.0924L16.9664 46.926Z" fill="white"/>
<path d="M15.8615 44.0407L12.7919 46.8647L12.2393 46.2508L12.976 43.9793C13.0374 43.7952 13.0988 43.611 13.1602 43.4882C13.2216 43.304 13.283 43.1812 13.4058 42.9971C13.3444 43.1198 13.2216 43.1812 13.1602 43.304C13.0374 43.4268 12.976 43.4882 12.8533 43.611L11.1957 45.1458L10.7045 44.5932L13.7741 41.7692L14.2653 42.3218L13.59 44.716C13.5286 44.8388 13.4672 45.023 13.4058 45.2072C13.3444 45.3913 13.283 45.5755 13.1602 45.7597C13.2216 45.6983 13.283 45.5755 13.4058 45.4527C13.5286 45.33 13.59 45.2686 13.7127 45.1458L15.3703 43.5496L15.8615 44.0407Z" fill="white"/>
<path d="M13.4672 41.5233L9.29252 42.6897L8.73999 41.8916L11.564 38.5764L12.0552 39.2518L11.4412 39.9885L12.2393 41.2163L13.1602 40.9707L13.4672 41.5233ZM11.5026 41.3391L10.9501 40.4182L9.66087 41.8916L11.5026 41.3391Z" fill="white"/>
<path d="M11.5026 38.2695L7.63488 39.8657L7.14375 38.6993C6.89818 38.0854 6.89818 37.5942 7.08236 37.1645C7.26653 36.7347 7.69627 36.3664 8.31019 36.1208C8.9855 35.8753 9.47663 35.8139 9.96777 35.998C10.3975 36.1822 10.7659 36.5506 11.0114 37.1645L11.5026 38.2695ZM10.5817 37.7784L10.3975 37.4101C10.2133 37.0417 10.0292 36.7961 9.7222 36.6733C9.47663 36.5506 9.10829 36.612 8.61715 36.7961C8.18741 36.9803 7.88045 37.2259 7.75767 37.4714C7.63488 37.717 7.63488 38.0854 7.81906 38.4537L8.00323 38.8221L10.5817 37.7784Z" fill="white"/>
<path d="M10.2748 35.2615L5.91596 34.8931L5.73179 33.9109L9.53808 31.8235L9.72225 32.5602L8.86277 32.99L9.16973 34.402L10.0906 34.4634L10.2748 35.2615ZM8.49442 34.4634L8.24885 33.4197L6.52988 34.3406L8.49442 34.4634Z" fill="white"/>
<path d="M52.0212 29.122C52.0212 29.7359 51.53 30.2885 50.8547 30.2885C50.2408 30.2885 49.6883 29.7973 49.6883 29.122C49.6883 28.5081 50.1794 27.9556 50.8547 27.9556C51.4687 28.017 52.0212 28.5081 52.0212 29.122Z" fill="white"/>
<path d="M8.18744 28.9995C8.18744 29.6134 7.69631 30.1659 7.021 30.1659C6.40708 30.1659 5.85455 29.6748 5.85455 28.9995C5.85455 28.3855 6.34569 27.833 7.021 27.833C7.69631 27.833 8.18744 28.3855 8.18744 28.9995Z" fill="white"/>
<path d="M43.4264 37.7172C33.972 28.1401 24.5177 47.2943 15.0634 37.7172C15.0634 31.7622 15.0634 25.8686 15.0634 19.9136C24.5177 29.4907 33.972 10.3365 43.4264 19.9136C43.4264 25.8686 43.4264 31.7622 43.4264 37.7172Z" fill="#E30613"/>
<path d="M35.4454 35.1386C31.3321 36.0595 27.1575 39.3746 23.0443 40.2341C23.0443 34.3405 23.0443 28.3855 23.0443 22.4305C27.2189 21.5096 31.3321 18.1944 35.5068 17.335C35.4454 23.29 35.4454 29.245 35.4454 35.1386Z" fill="white"/>
<path d="M34.1561 26.7894C34.1561 26.7894 33.665 26.9122 33.4194 26.6052C33.358 26.4824 34.1561 24.3951 34.1561 24.3951C34.1561 24.3951 32.7441 25.4387 32.4371 25.4387C32.3144 25.4387 32.253 24.4565 32.253 24.4565C32.253 24.4565 31.639 25.5001 31.0251 26.6052C30.9023 26.8508 30.7182 26.7894 30.7182 26.4824C30.9023 25.1932 31.3935 23.0445 31.3935 23.0445C31.3935 23.0445 30.7182 24.2109 30.3498 24.0881C30.0429 24.0267 29.1834 22.4919 29.1834 22.4919C29.1834 22.4919 28.3853 24.8862 28.0783 25.2546C27.71 25.6843 27.0347 25.1932 27.0347 25.1932C27.0347 25.1932 27.5258 26.9122 27.71 28.0172C27.7714 28.3242 27.5872 28.5083 27.403 28.4469C26.7891 27.9558 26.1752 27.4647 26.1752 27.4647C26.1752 27.4647 26.1138 28.4469 25.991 28.6311C25.684 28.9381 24.272 28.9381 24.272 28.8767C24.272 28.8767 25.1315 30.4115 25.0087 30.5957C24.7632 31.0868 24.272 31.3324 24.272 31.3324C24.272 31.3938 26.298 32.1305 26.3594 32.4988C26.4207 32.8672 26.0524 33.5425 26.0524 33.5425C26.0524 33.5425 27.5872 32.5602 28.8764 31.9463C28.9992 31.8849 29.0606 31.9463 29.0606 32.1305C29.122 32.3146 28.9378 35.3842 28.9378 35.3842C29.122 35.3228 29.2448 35.2 29.4289 35.1387C29.4289 35.1387 29.3062 32.1918 29.3062 32.0077C29.3062 31.7621 29.4289 31.6393 29.6131 31.5779C30.9023 30.8412 32.3144 30.4729 32.3144 30.4729C32.3144 30.4729 31.946 30.1045 32.0074 29.6748C32.1302 29.1837 34.1561 26.7894 34.1561 26.7894Z" fill="#E30613"/>
</svg>
