<svg width="14" height="14" viewBox="0 0 14 14" fill="none" xmlns="http://www.w3.org/2000/svg">
<g clip-path="url(#clip0_13_679)">
<path d="M13.9912 11.5224C13.9467 11.186 13.7525 10.8959 13.4584 10.7266L10.0045 8.73802C9.58153 8.49446 9.04489 8.56536 8.69961 8.91061L8.01931 9.59091C7.83828 9.77197 7.55187 9.788 7.35325 9.62813C6.81693 9.19659 6.28887 8.72166 5.78376 8.21652C5.27866 7.71141 4.80372 7.18338 4.37215 6.64704C4.21229 6.44838 4.22828 6.16201 4.40937 5.98095L5.08964 5.30064C5.43489 4.95543 5.50589 4.41884 5.26227 3.99574L3.27367 0.541887C3.10434 0.247802 2.81431 0.0536196 2.47789 0.00911073C2.14144 -0.0354888 1.81086 0.0767206 1.5709 0.316681L0.545837 1.34178C-0.169601 2.05724 -0.181091 3.36596 0.513484 5.02691C1.18136 6.62397 2.42773 8.38207 4.02294 9.97734C5.61822 11.5726 7.37632 12.819 8.97341 13.4868C9.79099 13.8287 10.5231 13.9996 11.1413 13.9995C11.7789 13.9995 12.2952 13.8177 12.6585 13.4544L13.6836 12.4293C13.9235 12.1894 14.0357 11.8588 13.9912 11.5224ZM9.77826 9.13107L13.2321 11.1197C13.4029 11.218 13.5157 11.3865 13.5415 11.5819C13.5632 11.7458 13.5206 11.9073 13.4241 12.0374L8.83392 9.41774L9.02033 9.23133C9.22084 9.03083 9.53258 8.98962 9.77826 9.13107ZM2.41839 0.458765C2.61381 0.484618 2.78226 0.597402 2.88059 0.76821L4.86919 4.22206C5.01069 4.4678 4.96945 4.77948 4.76895 4.97995L4.59772 5.15118L1.96365 0.576236C2.07133 0.496501 2.2001 0.453201 2.33436 0.453201C2.36221 0.453201 2.3903 0.455046 2.41839 0.458765ZM12.3378 13.1337C11.7694 13.7021 10.6069 13.6783 9.14839 13.0683C7.60449 12.4227 5.89818 11.2111 4.3437 9.65662C2.78921 8.10213 1.57755 6.3958 0.931934 4.85193C0.321963 3.39339 0.298166 2.23089 0.866561 1.66247L1.62754 0.901465L4.26556 5.48334L4.08865 5.66025C3.74349 6.00544 3.71344 6.55188 4.01877 6.93142C4.4605 7.4804 4.94644 8.02067 5.46301 8.53724C5.97964 9.05384 6.51992 9.53978 7.06887 9.98151C7.44834 10.2868 7.99479 10.2568 8.34003 9.9116L8.50144 9.7502L13.0979 12.3735L12.3378 13.1337Z" fill="#E30613"/>
</g>
<defs>
<clipPath id="clip0_13_679">
<rect width="14" height="14" fill="white"/>
</clipPath>
</defs>
</svg>
