<svg width="14" height="14" viewBox="0 0 14 14" fill="none" xmlns="http://www.w3.org/2000/svg">
<path d="M7.00001 0C4.26594 0 2.04169 2.22425 2.04169 4.95832C2.04169 7.60257 6.57476 13.629 6.76726 13.8845C6.82269 13.9574 6.90844 14 7.00001 14C7.09159 14 7.17734 13.9574 7.23276 13.8845C7.42526 13.629 11.9583 7.60257 11.9583 4.95832C11.9583 2.22425 9.73409 0 7.00001 0ZM7.00001 13.2177C6.06376 11.9368 2.62501 7.08632 2.62501 4.95832C2.62501 2.54565 4.58734 0.583324 7.00001 0.583324C9.41269 0.583324 11.375 2.54565 11.375 4.95832C11.375 7.08518 7.93626 11.9362 7.00001 13.2177Z" fill="#E30613"/>
<path d="M7 2.33325C5.55275 2.33325 4.375 3.511 4.375 4.95825C4.375 6.4055 5.55275 7.58325 7 7.58325C8.44725 7.58325 9.625 6.4055 9.625 4.95825C9.625 3.511 8.44725 2.33325 7 2.33325ZM7 6.99993C5.87418 6.99993 4.95832 6.0841 4.95832 4.95825C4.95832 3.83243 5.87415 2.91658 7 2.91658C8.12585 2.91658 9.04168 3.8324 9.04168 4.95825C9.04168 6.0841 8.12582 6.99993 7 6.99993Z" fill="#E30613"/>
</svg>
